<svg width="361" height="117" viewBox="0 0 361 117" fill="none" xmlns="http://www.w3.org/2000/svg">
<g style="mix-blend-mode:difference" filter="url(#filter0_di_3_41)">
<path d="M30 37.12H10.32V32H55.6V37.12H35.92V88H30V37.12ZM68.2038 54.16C69.5371 51.3333 71.5104 49.2 74.1238 47.76C76.7904 46.32 80.0704 45.6 83.9638 45.6V51.12L82.6038 51.04C78.1771 51.04 74.7104 52.4 72.2038 55.12C69.6971 57.84 68.4438 61.6533 68.4438 66.56V88H62.7638V45.92H68.2038V54.16ZM108.89 45.6C114.383 45.6 118.597 46.9867 121.53 49.76C124.463 52.48 125.93 56.5333 125.93 61.92V88H120.49V81.44C119.21 83.6267 117.317 85.3333 114.81 86.56C112.357 87.7867 109.423 88.4 106.01 88.4C101.317 88.4 97.5833 87.28 94.81 85.04C92.0367 82.8 90.65 79.84 90.65 76.16C90.65 72.5867 91.93 69.7067 94.49 67.52C97.1033 65.3333 101.237 64.24 106.89 64.24H120.25V61.68C120.25 58.0533 119.237 55.3067 117.21 53.44C115.183 51.52 112.223 50.56 108.33 50.56C105.663 50.56 103.103 51.0133 100.65 51.92C98.1967 52.7733 96.09 53.9733 94.33 55.52L91.77 51.28C93.9033 49.4667 96.4633 48.08 99.45 47.12C102.437 46.1067 105.583 45.6 108.89 45.6ZM106.89 83.92C110.09 83.92 112.837 83.2 115.13 81.76C117.423 80.2667 119.13 78.1333 120.25 75.36V68.48H107.05C99.85 68.48 96.25 70.9867 96.25 76C96.25 78.4533 97.1833 80.4 99.05 81.84C100.917 83.2267 103.53 83.92 106.89 83.92ZM141.358 45.92H147.038V88H141.358V45.92ZM144.238 36.72C143.064 36.72 142.078 36.32 141.278 35.52C140.478 34.72 140.078 33.76 140.078 32.64C140.078 31.5733 140.478 30.64 141.278 29.84C142.078 29.04 143.064 28.64 144.238 28.64C145.411 28.64 146.398 29.04 147.198 29.84C147.998 30.5867 148.398 31.4933 148.398 32.56C148.398 33.7333 147.998 34.72 147.198 35.52C146.398 36.32 145.411 36.72 144.238 36.72ZM184.282 45.6C189.562 45.6 193.749 47.1467 196.842 50.24C199.989 53.28 201.562 57.7333 201.562 63.6V88H195.882V64.16C195.882 59.7867 194.789 56.4533 192.602 54.16C190.415 51.8667 187.295 50.72 183.242 50.72C178.709 50.72 175.109 52.08 172.442 54.8C169.829 57.4667 168.522 61.1733 168.522 65.92V88H162.842V45.92H168.282V53.68C169.829 51.12 171.962 49.1467 174.682 47.76C177.455 46.32 180.655 45.6 184.282 45.6Z" fill="#B9B9B9" fill-opacity="0.8" shape-rendering="crispEdges"/>
<path d="M261.68 88.48C254.427 88.48 248.773 86.4 244.72 82.24C240.667 78.08 238.64 72.0267 238.64 64.08V32H244.56V63.84C244.56 70.3467 246.027 75.2 248.96 78.4C251.893 81.6 256.133 83.2 261.68 83.2C267.28 83.2 271.547 81.6 274.48 78.4C277.413 75.2 278.88 70.3467 278.88 63.84V32H284.64V64.08C284.64 72.0267 282.613 78.08 278.56 82.24C274.56 86.4 268.933 88.48 261.68 88.48Z" fill="#0047FF" fill-opacity="0.8" shape-rendering="crispEdges"/>
<path d="M261.68 88.48C254.427 88.48 248.773 86.4 244.72 82.24C240.667 78.08 238.64 72.0267 238.64 64.08V32H244.56V63.84C244.56 70.3467 246.027 75.2 248.96 78.4C251.893 81.6 256.133 83.2 261.68 83.2C267.28 83.2 271.547 81.6 274.48 78.4C277.413 75.2 278.88 70.3467 278.88 63.84V32H284.64V64.08C284.64 72.0267 282.613 78.08 278.56 82.24C274.56 86.4 268.933 88.48 261.68 88.48Z" fill="white" fill-opacity="0.2" shape-rendering="crispEdges"/>
<path d="M337.599 73.04H306.399L299.679 88H293.519L319.119 32H324.959L350.559 88H344.319L337.599 73.04ZM335.439 68.24L321.999 38.16L308.559 68.24H335.439Z" fill="#FF6B00" shape-rendering="crispEdges"/>
</g>
<defs>
<filter id="filter0_di_3_41" x="6.32001" y="28.64" width="348.239" height="67.84" filterUnits="userSpaceOnUse" color-interpolation-filters="sRGB">
<feFlood flood-opacity="0" result="BackgroundImageFix"/>
<feColorMatrix in="SourceAlpha" type="matrix" values="0 0 0 0 0 0 0 0 0 0 0 0 0 0 0 0 0 0 127 0" result="hardAlpha"/>
<feOffset dy="4"/>
<feGaussianBlur stdDeviation="2"/>
<feComposite in2="hardAlpha" operator="out"/>
<feColorMatrix type="matrix" values="0 0 0 0 0 0 0 0 0 0 0 0 0 0 0 0 0 0 0.25 0"/>
<feBlend mode="normal" in2="BackgroundImageFix" result="effect1_dropShadow_3_41"/>
<feBlend mode="normal" in="SourceGraphic" in2="effect1_dropShadow_3_41" result="shape"/>
<feColorMatrix in="SourceAlpha" type="matrix" values="0 0 0 0 0 0 0 0 0 0 0 0 0 0 0 0 0 0 127 0" result="hardAlpha"/>
<feOffset dx="3" dy="4"/>
<feGaussianBlur stdDeviation="2"/>
<feComposite in2="hardAlpha" operator="arithmetic" k2="-1" k3="1"/>
<feColorMatrix type="matrix" values="0 0 0 0 0 0 0 0 0 0 0 0 0 0 0 0 0 0 0.5 0"/>
<feBlend mode="normal" in2="shape" result="effect2_innerShadow_3_41"/>
</filter>
</defs>
</svg>
